<svg style="position: absolute; width: 0; height: 0; overflow: hidden;" version="1.1" xmlns="http://www.w3.org/2000/svg" xmlns:xlink="http://www.w3.org/1999/xlink">
<defs>
<symbol id="github" viewBox="0 0 30 30">
<title>github</title>
<path d="M15,3C8.373,3,3,8.373,3,15c0,5.623,3.872,10.328,9.092,11.63C12.036,26.468,12,26.28,12,26.047v-2.051 c-0.487,0-1.303,0-1.508,0c-0.821,0-1.551-0.353-1.905-1.009c-0.393-0.729-0.461-1.844-1.435-2.526 c-0.289-0.227-0.069-0.486,0.264-0.451c0.615,0.174,1.125,0.596,1.605,1.222c0.478,0.627,0.703,0.769,1.596,0.769 c0.433,0,1.081-0.025,1.691-0.121c0.328-0.833,0.895-1.6,1.588-1.962c-3.996-0.411-5.903-2.399-5.903-5.098 c0-1.162,0.495-2.286,1.336-3.233C9.053,10.647,8.706,8.73,9.435,8c1.798,0,2.885,1.166,3.146,1.481C13.477,9.174,14.461,9,15.495,9 c1.036,0,2.024,0.174,2.922,0.483C18.675,9.17,19.763,8,21.565,8c0.732,0.731,0.381,2.656,0.102,3.594 c0.836,0.945,1.328,2.066,1.328,3.226c0,2.697-1.904,4.684-5.894,5.097C18.199,20.49,19,22.1,19,23.313v2.734 c0,0.104-0.023,0.179-0.035,0.268C23.641,24.676,27,20.236,27,15C27,8.373,21.627,3,15,3z"></path>
</symbol>

<symbol id="email" viewBox="0 0 24 24">
<title>email</title>
<path fill-rule="evenodd" clip-rule="evenodd" d="M3.00977 5.83789C3.00977 5.28561 3.45748 4.83789 4.00977 4.83789H20C20.5523 4.83789 21 5.28561 21 5.83789V17.1621C21 18.2667 20.1046 19.1621 19 19.1621H5C3.89543 19.1621 3 18.2667 3 17.1621V6.16211C3 6.11449 3.00333 6.06765 3.00977 6.0218V5.83789ZM5 8.06165V17.1621H19V8.06199L14.1215 12.9405C12.9499 14.1121 11.0504 14.1121 9.87885 12.9405L5 8.06165ZM6.57232 6.80554H17.428L12.7073 11.5263C12.3168 11.9168 11.6836 11.9168 11.2931 11.5263L6.57232 6.80554Z"></path>
</symbol>

<symbol id="insta" viewBox="0 0 24 24">
<title>email</title>
<path d="M 8 3 C 5.243 3 3 5.243 3 8 L 3 16 C 3 18.757 5.243 21 8 21 L 16 21 C 18.757 21 21 18.757 21 16 L 21 8 C 21 5.243 18.757 3 16 3 L 8 3 z M 8 5 L 16 5 C 17.654 5 19 6.346 19 8 L 19 16 C 19 17.654 17.654 19 16 19 L 8 19 C 6.346 19 5 17.654 5 16 L 5 8 C 5 6.346 6.346 5 8 5 z M 17 6 A 1 1 0 0 0 16 7 A 1 1 0 0 0 17 8 A 1 1 0 0 0 18 7 A 1 1 0 0 0 17 6 z M 12 7 C 9.243 7 7 9.243 7 12 C 7 14.757 9.243 17 12 17 C 14.757 17 17 14.757 17 12 C 17 9.243 14.757 7 12 7 z M 12 9 C 13.654 9 15 10.346 15 12 C 15 13.654 13.654 15 12 15 C 10.346 15 9 13.654 9 12 C 9 10.346 10.346 9 12 9 z"></path>
</symbol>

<symbol id="linkedin" viewBox="0 0 32 32">
<title>linkedin</title>
<path d="M 7.5 5 C 6.132813 5 5 6.132813 5 7.5 L 5 24.5 C 5 25.867188 6.132813 27 7.5 27 L 24.5 27 C 25.867188 27 27 25.867188 27 24.5 L 27 7.5 C 27 6.132813 25.867188 5 24.5 5 Z M 7.5 7 L 24.5 7 C 24.785156 7 25 7.214844 25 7.5 L 25 24.5 C 25 24.785156 24.785156 25 24.5 25 L 7.5 25 C 7.214844 25 7 24.785156 7 24.5 L 7 7.5 C 7 7.214844 7.214844 7 7.5 7 Z M 10.4375 8.71875 C 9.488281 8.71875 8.71875 9.488281 8.71875 10.4375 C 8.71875 11.386719 9.488281 12.15625 10.4375 12.15625 C 11.386719 12.15625 12.15625 11.386719 12.15625 10.4375 C 12.15625 9.488281 11.386719 8.71875 10.4375 8.71875 Z M 19.46875 13.28125 C 18.035156 13.28125 17.082031 14.066406 16.6875 14.8125 L 16.625 14.8125 L 16.625 13.5 L 13.8125 13.5 L 13.8125 23 L 16.75 23 L 16.75 18.3125 C 16.75 17.074219 16.996094 15.875 18.53125 15.875 C 20.042969 15.875 20.0625 17.273438 20.0625 18.375 L 20.0625 23 L 23 23 L 23 17.78125 C 23 15.226563 22.457031 13.28125 19.46875 13.28125 Z M 9 13.5 L 9 23 L 11.96875 23 L 11.96875 13.5 Z"></path>
</symbol>

<symbol id="medium" viewBox="0 0 50 50">
<title>medium</title>
<path d="M30,43h17l-4-4l-0.027-28.496l3.891-4.49H34.845l-9.24,22.73L15.497,6H3l4,5.091v24.195L1,43h14l-6-7.714V13.75L22,43 l-0.002,0.014L34,13.545V39L30,43z M10.911,41H5.089L8,37.258L10.911,41z M21.922,37.899L10.828,12.938L8.633,8h5.564l9.581,21.556 l0.805,1.81L21.922,37.899z M35.414,40.414L36,39.828V39V13.545v-5.06l0.191-0.47h6.293l-1.022,1.18l-0.489,0.565l0.001,0.747 L41,39.002l0.001,0.827l0.585,0.585L42.172,41h-7.343L35.414,40.414z"></path>
</symbol>

<symbol id="arrow-right" viewBox="0 0 24 24">
<title>arrow-right</title>
<path d="M15.0378 6.34317L13.6269 7.76069L16.8972 11.0157L3.29211 11.0293L3.29413 13.0293L16.8619 13.0157L13.6467 16.2459L15.0643 17.6568L20.7079 11.9868L15.0378 6.34317Z"></path>
</symbol>

<symbol id="arrow-left" viewBox="0 0 24 24">
<title>arrow-left</title>
<path d="M20.3284 11.0001V13.0001L7.50011 13.0001L10.7426 16.2426L9.32842 17.6568L3.67157 12L9.32842 6.34314L10.7426 7.75735L7.49988 11.0001L20.3284 11.0001Z"></path>
</symbol>

<symbol id="external-link" viewBox="0 0 24 24">
<title>external-link</title>
<path d="M 19.980469 2.9902344 A 1.0001 1.0001 0 0 0 19.869141 3 L 15 3 A 1.0001 1.0001 0 1 0 15 5 L 17.585938 5 L 8.2929688 14.292969 A 1.0001 1.0001 0 1 0 9.7070312 15.707031 L 19 6.4140625 L 19 9 A 1.0001 1.0001 0 1 0 21 9 L 21 4.1269531 A 1.0001 1.0001 0 0 0 19.980469 2.9902344 z M 5 3 C 3.9069372 3 3 3.9069372 3 5 L 3 19 C 3 20.093063 3.9069372 21 5 21 L 19 21 C 20.093063 21 21 20.093063 21 19 L 21 13 A 1.0001 1.0001 0 1 0 19 13 L 19 19 L 5 19 L 5 5 L 11 5 A 1.0001 1.0001 0 1 0 11 3 L 5 3 z"></path>
</symbol>

</defs>
</svg>